<?xml version="1.0" standalone="no"?>
<!DOCTYPE svg PUBLIC "-//W3C//DTD SVG 20010904//EN"
 "http://www.w3.org/TR/2001/REC-SVG-20010904/DTD/svg10.dtd">
<svg version="1.0" xmlns="http://www.w3.org/2000/svg"
 width="626.000000pt" height="417.000000pt" viewBox="0 0 626.000000 417.000000"
 preserveAspectRatio="xMidYMid meet">

<g transform="translate(0.000000,417.000000) scale(0.100000,-0.100000)"
fill="#000000" stroke="none">
<path d="M4308 3894 c-3 -3 -37 -7 -74 -9 -128 -8 -210 -33 -223 -69 -7 -16
-17 -23 -36 -23 -14 0 -38 -12 -53 -25 -15 -14 -41 -30 -59 -37 -17 -7 -40
-22 -50 -33 -17 -19 -17 -20 1 -34 16 -11 17 -16 6 -29 -9 -11 -22 -14 -37
-10 -20 5 -23 2 -23 -25 0 -30 -7 -36 -63 -54 -10 -3 -15 -11 -12 -17 5 -8 10
-8 18 0 6 6 16 11 21 11 6 0 -5 -13 -24 -29 -33 -27 -58 -32 -44 -9 4 7 2 8
-4 4 -11 -7 -6 -36 7 -36 4 0 7 -10 6 -22 -1 -18 -7 -22 -26 -20 -19 2 -27 -4
-37 -28 -8 -17 -12 -37 -9 -44 3 -8 -2 -17 -11 -21 -16 -6 -16 -7 1 -19 24
-18 21 -36 -5 -36 -18 0 -20 -2 -9 -9 8 -5 21 -7 29 -3 11 4 14 1 9 -11 -3 -9
-2 -17 3 -17 6 0 10 5 10 11 0 5 5 7 10 4 6 -4 10 -3 9 2 -4 21 3 31 27 42 29
13 40 9 29 -9 -4 -6 -14 -9 -22 -6 -11 4 -13 2 -9 -9 3 -9 -3 -24 -14 -35 -16
-16 -17 -20 -5 -20 8 0 15 -5 15 -11 0 -5 -6 -7 -12 -3 -9 5 -9 2 1 -9 12 -15
11 -17 -4 -17 -17 0 -17 -1 0 -20 18 -20 17 -20 -11 -21 -16 0 -24 -3 -17 -5
7 -3 9 -12 6 -20 -4 -10 2 -17 16 -21 14 -3 21 -13 21 -28 0 -12 7 -28 15 -35
15 -13 21 -41 8 -39 -5 1 -19 1 -33 0 -24 -2 -24 -2 -6 -16 10 -8 23 -12 27
-9 5 2 2 -17 -6 -43 -16 -53 -20 -86 -7 -66 5 8 12 9 22 2 13 -8 12 -11 -3
-23 -18 -14 -18 -15 1 -25 16 -8 21 -7 26 4 3 8 13 15 21 15 9 0 13 5 10 10
-3 6 -1 10 5 10 6 0 8 -10 4 -24 -4 -16 -1 -25 10 -29 19 -7 22 -47 4 -47 -10
0 -9 -3 1 -9 11 -7 10 -13 -3 -33 -14 -22 -14 -26 0 -47 12 -16 19 -20 27 -12
16 16 44 13 51 -4 3 -8 12 -15 19 -15 8 0 20 -6 26 -14 9 -11 5 -16 -19 -26
-16 -7 -30 -18 -30 -25 0 -14 32 -45 47 -45 6 0 13 -13 16 -28 4 -22 15 -32
46 -44 23 -9 41 -12 41 -7 0 5 7 9 15 9 18 0 88 64 91 83 1 7 8 26 14 42 l13
30 7 -25 c6 -23 9 -21 33 30 14 30 26 47 26 38 1 -26 14 -22 33 10 10 15 18
21 18 14 0 -21 20 -3 20 19 0 30 13 22 43 -27 15 -26 27 -60 27 -80 0 -46 16
-43 24 4 11 67 7 101 -15 123 -15 15 -18 24 -9 33 5 8 8 20 5 29 -4 9 5 23 23
36 34 23 57 27 68 9 5 -7 3 -8 -6 -3 -9 5 -10 2 -5 -15 5 -15 1 -28 -15 -45
-13 -13 -24 -41 -26 -67 -5 -40 -4 -42 10 -23 41 55 53 65 74 65 13 0 35 -9
48 -19 18 -14 34 -18 63 -14 36 5 38 4 44 -26 7 -32 37 -55 45 -33 2 6 12 22
22 34 l18 23 24 -22 c13 -13 30 -23 36 -23 14 0 14 -2 3 37 -9 32 -9 32 14 17
13 -9 29 -13 35 -9 18 11 29 49 16 58 -7 5 -6 7 4 6 24 -3 80 13 80 22 0 5 10
3 23 -6 24 -15 103 -142 131 -209 26 -62 63 -212 82 -334 13 -83 21 -111 31
-108 18 7 44 -4 37 -16 -4 -6 -10 -5 -15 3 -6 10 -11 11 -18 4 -8 -8 -7 -30 0
-73 10 -58 13 -63 43 -70 23 -6 34 -5 43 7 11 14 12 13 13 -7 0 -22 -3 -23
-42 -17 -29 5 -40 4 -33 -3 13 -13 57 -19 73 -9 19 12 14 76 -8 112 -18 29
-18 34 -5 39 14 5 14 9 -1 38 -15 29 -15 34 0 58 8 15 12 31 8 35 -4 5 -1 5 6
1 7 -4 10 -16 7 -26 -4 -14 -1 -16 19 -13 19 4 24 11 24 33 -1 15 2 32 6 38
10 17 -12 24 -36 11 -20 -11 -21 -10 -11 2 10 12 9 21 -1 41 -9 17 -10 31 -4
42 7 13 5 23 -7 37 -13 13 -15 22 -7 31 5 7 9 29 8 48 -1 27 -9 39 -33 55 -26
17 -30 25 -26 51 4 22 -2 41 -21 68 -14 22 -26 45 -26 52 0 8 -11 21 -25 30
-14 9 -23 20 -20 24 9 14 -14 60 -30 60 -8 0 -15 5 -15 11 0 5 -4 7 -10 4 -6
-4 -8 7 -6 27 7 59 -54 155 -90 141 -14 -5 -16 -3 -11 11 4 10 7 21 7 24 0 4
5 0 10 -8 6 -9 10 -10 10 -3 0 6 -7 18 -15 26 -8 8 -11 17 -8 21 3 3 -2 8 -11
12 -9 3 -16 15 -16 25 0 10 -4 19 -10 19 -5 0 -10 9 -10 21 0 21 -34 72 -42
64 -2 -3 -3 8 0 25 3 19 -3 38 -16 55 -15 19 -19 35 -15 64 4 29 1 43 -13 58
-28 28 -43 63 -46 108 -3 35 -8 43 -40 60 -20 10 -44 32 -53 47 -22 39 -54 68
-90 83 -16 7 -30 21 -31 32 -2 51 -6 61 -24 81 -12 12 -30 22 -41 22 -11 0
-29 9 -41 20 -13 12 -36 20 -54 20 -18 0 -36 5 -39 10 -7 11 -48 14 -57 4z
m112 -40 c0 -2 -7 -4 -15 -4 -8 0 -15 4 -15 10 0 5 7 7 15 4 8 -4 15 -8 15
-10z m115 -44 c27 -29 15 -32 -18 -4 -16 14 -22 24 -14 24 8 0 22 -9 32 -20z
m-655 -114 c0 -14 -29 -31 -38 -21 -6 6 18 35 29 35 5 0 9 -6 9 -14z m526
-112 c1 -14 11 -32 23 -40 15 -11 21 -26 21 -55 0 -22 7 -54 16 -71 36 -70 28
-231 -17 -320 -44 -87 -92 -120 -214 -147 -49 -11 -134 -9 -155 4 -18 11 -47
77 -59 133 -15 72 -15 72 15 28 28 -40 44 -36 44 12 0 16 6 22 23 23 18 1 17
2 -8 10 -16 5 -36 7 -42 4 -16 -5 -16 -1 -2 50 6 22 16 43 23 47 7 5 5 8 -6 8
-9 0 -25 -14 -35 -30 -23 -39 -39 -33 -36 15 3 44 18 65 45 65 10 0 17 4 14 9
-3 5 1 11 9 15 8 3 15 1 15 -3 0 -5 12 -4 26 2 23 11 25 16 20 52 -2 21 -12
45 -21 51 -21 16 -13 42 25 83 51 53 104 74 169 66 31 -3 67 -2 81 4 14 5 25
10 25 10 0 1 1 -11 1 -25z m329 -65 c10 -30 0 -33 -13 -4 -6 14 -7 25 -2 25 5
0 12 -9 15 -21z m-645 -109 c8 -5 12 -12 9 -15 -8 -8 -39 5 -39 16 0 11 11 11
30 -1z m-410 -30 c0 -5 -9 -10 -19 -10 -11 0 -23 5 -26 10 -4 6 5 10 19 10 14
0 26 -4 26 -10z m1140 -11 c0 -6 -4 -7 -10 -4 -5 3 -10 11 -10 16 0 6 5 7 10
4 6 -3 10 -11 10 -16z m-1192 -94 c-3 -3 -9 2 -12 12 -6 14 -5 15 5 6 7 -7 10
-15 7 -18z m92 -41 c0 -8 -4 -12 -10 -9 -5 3 -10 10 -10 16 0 5 5 9 10 9 6 0
10 -7 10 -16z m-19 -101 c-12 -20 -14 -14 -5 12 4 9 9 14 11 11 3 -2 0 -13 -6
-23z m26 -7 c-7 -14 -13 -23 -15 -21 -7 6 9 45 18 45 4 0 3 -11 -3 -24z m-7
-58 c0 -41 -15 -52 -33 -25 -12 18 -13 27 -4 36 18 18 37 13 37 -11z m57 -112
c-3 -8 -1 -16 5 -18 7 -3 8 -10 3 -18 -7 -11 -10 -10 -16 6 -11 28 -10 44 2
44 6 0 9 -6 6 -14z m268 -66 c-8 -24 -27 -22 -31 4 -2 14 0 15 12 5 8 -7 14
-8 13 -3 -3 16 1 28 7 21 3 -3 3 -15 -1 -27z m-271 -16 c9 -36 0 -41 -23 -13
-14 17 -16 26 -8 31 19 12 24 9 31 -18z m306 -34 c6 -11 7 -20 2 -20 -10 0
-32 21 -32 32 0 16 19 8 30 -12z m-41 -27 c1 15 4 16 22 7 16 -9 24 -8 38 4
16 15 21 15 47 1 16 -8 34 -15 41 -15 18 0 26 -19 18 -48 -5 -20 -8 -23 -16
-11 -7 12 -9 12 -9 -1 0 -13 -1 -13 -10 0 -7 11 -11 9 -20 -14 -7 -19 -15 -26
-25 -22 -8 3 -15 1 -15 -4 0 -6 -4 -10 -10 -10 -5 0 -10 9 -10 19 0 11 5 23
10 26 6 3 10 11 10 17 0 18 -37 -21 -50 -53 -12 -29 -40 -41 -40 -16 0 14 20
47 20 33 0 -11 30 14 30 25 0 5 -9 9 -20 9 -11 0 -20 7 -20 16 0 8 -4 13 -9 9
-17 -10 -22 13 -9 35 13 20 13 20 20 -2 4 -17 6 -18 7 -5z m-44 -103 c-3 -5
-12 -10 -18 -10 -7 0 -6 4 3 10 19 12 23 12 15 0z m-221 -35 c3 -8 1 -15 -4
-15 -6 0 -10 7 -10 15 0 8 2 15 4 15 2 0 6 -7 10 -15z m876 6 c0 -9 -20 -37
-20 -29 0 3 -2 13 -5 21 -4 8 0 14 10 14 8 0 15 -3 15 -6z m-727 -122 c4 -15
2 -17 -13 -9 -9 5 -20 7 -23 3 -3 -3 -14 -2 -24 1 -15 6 -14 9 7 20 30 15 46
11 53 -15z m146 -17 c7 -13 6 -23 -1 -30 -19 -19 -38 -14 -38 11 0 40 22 50
39 19z m1183 -104 c-7 -7 -12 -8 -12 -2 0 14 12 26 19 19 2 -3 -1 -11 -7 -17z
m-1 -91 c-10 -9 -11 -8 -5 6 3 10 9 15 12 12 3 -3 0 -11 -7 -18z m11 -62 c-12
-22 -27 -2 -18 22 5 12 10 13 17 6 7 -7 8 -17 1 -28z m-22 -66 c0 -4 -7 -6
-15 -3 -8 4 -15 10 -15 15 0 4 7 6 15 3 8 -4 15 -10 15 -15z m-27 -40 c-4 -13
-9 -17 -15 -11 -11 11 -3 32 12 32 4 0 6 -9 3 -21z m24 -71 c-3 -8 -6 -5 -6 6
-1 11 2 17 5 13 3 -3 4 -12 1 -19z m8 -117 c-3 -6 -11 -11 -17 -11 -6 0 -6 6
2 15 14 17 26 13 15 -4z"/>
<path d="M4258 3468 c-20 -5 -39 -16 -42 -24 -6 -17 12 -18 51 -3 15 6 45 11
67 11 39 0 39 1 15 14 -28 15 -40 16 -91 2z"/>
<path d="M4264 3391 c4 -6 1 -9 -7 -5 -8 3 -17 -1 -20 -9 -4 -11 10 -14 65
-15 71 -2 86 11 25 23 -17 4 -40 9 -51 12 -12 3 -16 1 -12 -6z"/>
<path d="M4260 3242 c0 -5 11 -18 25 -30 28 -24 24 -53 -6 -45 -10 3 -19 0
-19 -6 0 -6 5 -11 10 -11 6 0 10 -7 10 -15 0 -22 26 -8 39 21 12 27 9 37 -22
72 -21 22 -37 29 -37 14z"/>
<path d="M4155 3224 c-9 -9 -13 -19 -10 -22 3 -3 11 0 17 6 7 7 20 12 31 12
10 0 15 5 12 10 -9 15 -31 12 -50 -6z"/>
<path d="M4078 3223 c7 -3 16 -2 19 1 4 3 -2 6 -13 5 -11 0 -14 -3 -6 -6z"/>
<path d="M4170 3160 c0 -5 5 -10 11 -10 5 0 7 5 4 10 -3 6 -8 10 -11 10 -2 0
-4 -4 -4 -10z"/>
<path d="M4140 2785 c-7 -9 -10 -18 -7 -21 3 -3 10 4 17 15 13 25 8 27 -10 6z"/>
<path d="M3480 3070 c8 -5 20 -10 25 -10 6 0 3 5 -5 10 -8 5 -19 10 -25 10 -5
0 -3 -5 5 -10z"/>
<path d="M3635 3050 c-3 -5 -1 -10 4 -10 6 0 11 5 11 10 0 6 -2 10 -4 10 -3 0
-8 -4 -11 -10z"/>
<path d="M3620 2931 c0 -5 7 -12 16 -15 14 -5 15 -4 4 9 -14 17 -20 19 -20 6z"/>
<path d="M3380 2921 c0 -17 31 -28 100 -34 l65 -5 -65 18 c-36 10 -73 21 -82
25 -11 4 -18 3 -18 -4z"/>
<path d="M3306 2810 c-48 -28 -74 -56 -61 -68 3 -3 15 -1 25 6 17 10 20 10 20
-6 0 -10 3 -22 6 -25 12 -11 43 13 46 35 2 16 17 30 47 44 42 20 43 22 23 33
-30 16 -51 12 -106 -19z"/>
<path d="M3295 2690 c-4 -6 -8 -25 -10 -43 -2 -18 -8 -68 -14 -112 -6 -44 -13
-120 -16 -169 -9 -157 -27 -311 -36 -317 -5 -3 -7 -13 -4 -21 4 -11 24 -17 63
-21 53 -5 67 -1 209 59 84 36 170 71 190 78 59 21 223 99 271 129 41 27 42 29
36 68 -5 32 -18 51 -56 87 -62 57 -87 76 -96 68 -3 -4 14 -25 39 -48 24 -22
37 -37 29 -33 -12 7 -12 5 1 -11 30 -36 29 -52 -4 -89 -18 -19 -62 -52 -98
-74 -81 -46 -306 -141 -337 -141 -13 0 -21 -4 -18 -8 2 -4 -4 -9 -15 -9 -11
-1 -19 5 -20 15 0 13 -3 12 -11 -5 -12 -25 -28 -30 -28 -9 0 7 -9 25 -21 39
-11 15 -22 35 -24 46 -2 11 -8 29 -14 40 -15 26 -18 236 -7 379 8 105 6 127
-9 102z"/>
<path d="M4272 2630 c0 -14 2 -19 5 -12 2 6 2 18 0 25 -3 6 -5 1 -5 -13z"/>
<path d="M3432 2308 c-1 -23 4 -51 12 -63 8 -13 12 -32 9 -45 -4 -17 -2 -21 8
-18 12 4 26 53 30 108 2 21 19 41 30 34 5 -3 9 -1 9 4 0 5 -14 12 -31 16 -61
12 -66 9 -67 -36z m38 -39 c0 -6 -4 -7 -10 -4 -5 3 -10 11 -10 16 0 6 5 7 10
4 6 -3 10 -11 10 -16z"/>
<path d="M5293 2333 c13 -3 16 -11 12 -26 -5 -19 -5 -20 5 -4 13 21 5 37 -18
36 -15 -1 -15 -2 1 -6z"/>
<path d="M2502 2024 c-18 -19 -32 -44 -32 -54 0 -17 7 -20 48 -20 34 0 43 3
32 10 -10 6 -11 10 -2 10 6 0 12 5 12 11 0 7 -10 9 -25 7 -14 -3 -25 -1 -25 3
0 5 9 9 20 9 15 0 20 7 20 24 0 38 -13 38 -48 0z"/>
<path d="M2380 2030 c0 -18 24 -87 32 -96 10 -9 48 6 48 20 0 6 -18 30 -40 51
-23 23 -40 33 -40 25z"/>
<path d="M4990 2029 c-41 -5 -97 -14 -125 -21 -48 -13 -50 -14 -47 -47 1 -18
7 -41 13 -50 8 -13 9 -10 6 12 -4 27 -3 27 49 27 39 0 58 5 71 19 36 37 73 53
128 55 30 2 58 6 62 9 8 9 -60 7 -157 -4z"/>
<path d="M1313 2010 c-27 -12 -43 -26 -43 -37 0 -13 -7 -10 -33 15 -36 35 -47
39 -47 19 0 -7 -9 -31 -20 -52 -12 -22 -20 -53 -19 -70 0 -16 0 -43 -1 -60 -3
-27 -3 -26 -9 10 -7 38 -7 36 -14 -30 -4 -38 -12 -101 -18 -140 -20 -121 -22
-143 -9 -122 6 10 18 46 26 80 13 59 14 59 10 15 -2 -29 1 -49 8 -52 8 -3 7
-7 -1 -13 -7 -5 -12 -22 -12 -38 0 -17 -2 -86 -6 -155 -4 -72 -3 -155 3 -195
8 -56 7 -74 -4 -92 -19 -31 -18 -41 9 -46 l22 -4 -22 -2 c-18 -1 -23 -7 -23
-30 0 -24 3 -28 20 -24 11 3 23 9 26 14 11 18 44 9 44 -11 0 -13 -7 -20 -18
-20 -19 0 -48 -62 -37 -80 3 -5 0 -20 -7 -32 -12 -23 -12 -23 -19 7 -3 17 -5
-5 -4 -48 3 -62 7 -82 22 -94 16 -13 16 -14 1 -9 -23 7 -33 -15 -42 -82 l-7
-53 99 107 c73 77 98 112 95 125 -3 11 49 -35 115 -101 66 -66 122 -120 124
-120 2 0 5 17 6 37 1 21 7 70 14 108 6 39 11 74 9 80 -1 5 -11 75 -22 155 -10
80 -23 165 -29 190 -5 25 -17 91 -25 147 -8 57 -16 106 -16 110 -1 5 -5 -5 -9
-22 -7 -28 -6 -95 5 -244 6 -86 -2 -73 -15 25 -29 219 -103 610 -120 634 -19
27 -60 106 -60 115 0 3 15 3 34 0 32 -7 34 -5 41 27 4 18 13 43 21 56 17 26
12 26 -43 2z m-69 -90 c-14 -14 -82 -26 -69 -12 9 9 28 15 70 21 5 0 5 -3 -1
-9z m6 -910 c0 -5 -4 -10 -10 -10 -5 0 -10 5 -10 10 0 6 5 10 10 10 6 0 10 -4
10 -10z m217 -62 c-3 -8 -6 -5 -6 6 -1 11 2 17 5 13 3 -3 4 -12 1 -19z m-315
-180 c-2 -10 -8 -18 -13 -18 -5 0 -9 8 -9 18 0 10 6 19 14 19 8 0 11 -8 8 -19z"/>
<path d="M1476 1984 c-32 -22 -60 -34 -82 -34 -19 0 -34 -5 -34 -11 0 -6 9 -8
23 -4 19 6 18 3 -8 -18 -16 -14 -27 -28 -24 -32 4 -3 22 7 40 23 47 40 89 60
151 72 l53 9 -54 -4 c-59 -5 -60 -4 -16 19 17 9 23 16 15 15 -8 0 -37 -16 -64
-35z"/>
<path d="M1618 2013 c7 -3 16 -2 19 1 4 3 -2 6 -13 5 -11 0 -14 -3 -6 -6z"/>
<path d="M2010 1973 c0 -53 4 -60 28 -45 10 7 8 18 -7 53 l-21 44 0 -52z"/>
<path d="M2167 2007 c-11 -29 -9 -53 4 -40 6 6 9 21 7 34 -3 21 -4 22 -11 6z"/>
<path d="M1670 1986 c0 -2 8 -10 18 -17 15 -13 16 -12 3 4 -13 16 -21 21 -21
13z"/>
<path d="M1601 1976 c14 -13 69 -35 69 -28 0 9 -44 32 -62 32 -6 0 -9 -2 -7
-4z"/>
<path d="M2494 1929 c-14 -24 -16 -170 -4 -314 19 -231 25 -425 11 -425 -7 0
-9 9 -6 23 4 17 -1 26 -23 38 -28 16 -29 15 -40 -10 -12 -30 -28 -386 -18
-425 7 -30 25 -30 43 -1 11 18 12 17 13 -15 0 -25 -6 -39 -20 -48 -12 -7 -18
-17 -15 -22 3 -6 1 -10 -4 -10 -6 0 -11 -15 -12 -32 -1 -18 -4 -44 -8 -58 -4
-14 -11 60 -15 170 -5 107 -11 245 -15 305 -6 104 -6 97 -12 -110 -6 -217 1
-339 23 -382 10 -21 11 -21 35 15 14 20 42 57 62 82 66 79 70 100 27 131 -16
12 2 39 20 32 12 -4 15 -2 12 8 -3 8 2 20 9 28 15 14 13 80 -7 317 -5 55 -7
202 -4 325 3 173 1 239 -10 291 -18 82 -30 107 -42 87z m4 -1144 c-3 -3 -9 2
-12 12 -6 14 -5 15 5 6 7 -7 10 -15 7 -18z"/>
<path d="M2211 1904 c0 -11 3 -14 6 -6 3 7 2 16 -1 19 -3 4 -6 -2 -5 -13z"/>
<path d="M2613 1873 c0 -12 4 -20 8 -18 3 3 18 -31 32 -74 20 -57 27 -97 26
-147 -1 -67 -1 -68 -14 -39 -11 24 -14 26 -15 9 0 -25 25 -62 36 -51 4 4 9 31
12 61 3 42 -3 75 -27 149 -33 100 -61 152 -58 110z"/>
<path d="M2231 1756 c23 -167 28 -180 23 -61 -4 93 -17 159 -33 178 -4 4 1
-49 10 -117z"/>
<path d="M2377 1863 c-3 -4 -8 -27 -12 -51 -4 -23 -11 -39 -16 -36 -7 4 -9
-53 -7 -155 4 -210 22 -221 26 -16 1 83 7 175 11 205 9 54 8 70 -2 53z"/>
<path d="M1957 1807 c-3 -9 -2 -29 3 -43 16 -40 12 -85 -12 -155 -29 -81 -35
-52 -14 61 9 45 16 87 15 94 -1 23 -19 -36 -33 -114 -15 -78 -10 -130 13 -130
5 0 20 37 35 83 24 79 25 87 13 152 -8 45 -16 63 -20 52z"/>
<path d="M5195 1700 c8 -66 15 -167 17 -275 1 -44 4 -84 8 -90 4 -5 7 -18 7
-29 0 -18 -1 -18 -15 0 -13 18 -14 16 -8 -14 3 -21 2 -31 -4 -27 -6 3 -10 -1
-10 -9 0 -9 -8 -16 -17 -16 -10 0 -52 -11 -93 -24 -41 -13 -115 -29 -165 -36
-49 -7 -104 -16 -122 -22 -21 -6 -45 -6 -70 1 -21 6 -49 12 -63 15 -14 3 -36
15 -49 27 -19 18 -32 21 -81 17 -32 -2 -57 -1 -54 4 3 4 -2 8 -11 8 -11 0 -15
-5 -11 -15 3 -10 -1 -15 -14 -16 -11 -1 -28 -2 -37 -2 -10 -1 -23 -8 -30 -17
-11 -13 -12 -13 -13 3 0 20 36 57 87 88 18 11 33 25 33 30 0 5 9 9 20 9 11 0
20 5 20 11 0 8 -18 9 -62 5 -49 -6 -69 -14 -96 -37 -19 -17 -40 -28 -48 -25
-8 3 -14 1 -14 -5 0 -6 -4 -8 -9 -4 -5 3 -19 -8 -30 -24 -24 -33 -26 -41 -10
-41 5 0 7 5 4 10 -3 6 -3 10 2 11 4 0 28 2 53 5 l45 4 -27 -25 c-16 -14 -28
-29 -28 -32 0 -4 5 -2 12 5 16 16 28 15 28 -3 0 -8 -5 -15 -11 -15 -5 0 -8 -4
-4 -9 6 -12 -56 -61 -77 -61 -8 0 -23 -7 -34 -15 -24 -18 -45 -19 -38 -2 3 9
-13 18 -48 27 -29 8 -57 14 -63 15 -5 1 -17 4 -25 8 -8 3 -50 15 -93 26 -62
15 -77 16 -73 6 19 -52 76 -242 76 -257 0 -10 -6 -18 -14 -18 -13 0 -246 67
-626 181 -91 27 -176 58 -190 68 -19 13 -47 79 -121 277 l-97 259 -38 -3 c-73
-6 -134 -56 -182 -148 -14 -27 19 -234 44 -272 10 -15 97 -108 196 -208 98
-99 178 -186 178 -192 0 -7 -13 -12 -30 -12 -35 0 -58 -29 -62 -79 -2 -23 -8
-36 -20 -39 -18 -4 -22 -14 -19 -39 1 -7 -2 -13 -7 -13 -16 0 -6 -41 16 -63
24 -24 48 -25 242 -16 68 3 94 0 127 -15 39 -17 49 -18 118 -6 l76 13 -36 37
c-36 37 -36 38 -21 66 27 50 50 71 83 77 30 6 36 2 74 -46 28 -35 48 -51 60
-49 22 4 72 -32 61 -43 -4 -3 -2 -5 3 -4 15 4 149 -21 165 -31 25 -16 -19 -25
-63 -13 -22 6 -47 9 -54 6 -21 -8 -31 -42 -27 -90 2 -27 -2 -46 -11 -53 -13
-11 -10 -20 15 -67 17 -30 30 -65 30 -79 0 -21 -5 -24 -36 -24 -19 0 -33 -4
-30 -9 4 -5 -4 -7 -16 -3 -12 3 -17 7 -10 10 20 6 13 22 -10 22 -13 1 -39 7
-59 14 -37 13 -63 11 -53 -5 3 -5 -1 -9 -8 -9 -8 0 -6 -5 5 -11 10 -6 25 -8
33 -5 8 3 14 -1 14 -9 0 -7 -13 -16 -30 -20 -16 -4 -30 -12 -30 -18 0 -9 -2
-9 -8 -1 -4 7 -15 8 -27 4 -19 -8 -19 -8 5 -17 28 -12 55 -7 71 13 16 19 32
18 58 -5 20 -18 21 -20 4 -19 -10 0 -31 -5 -48 -12 -43 -18 -14 -25 49 -12 28
6 77 16 108 22 31 6 67 19 80 29 13 10 63 37 113 62 85 42 93 44 165 41 287
-13 349 -4 505 68 39 18 88 41 110 51 22 10 81 32 130 50 116 40 169 70 228
127 57 55 90 115 113 206 l16 65 -39 63 c-22 35 -43 71 -46 81 -4 10 -19 24
-35 30 -15 5 -39 25 -54 42 l-28 33 71 22 c82 27 110 47 133 94 22 48 20 87
-13 228 -16 68 -34 157 -40 198 -14 86 -27 112 -16 30z m45 -425 c-7 -9 -15
-13 -19 -10 -3 3 1 10 9 15 21 14 24 12 10 -5z m-1160 -325 c-6 -10 -28 -25
-50 -31 -22 -7 -40 -18 -40 -26 0 -22 -28 -14 -32 9 -3 19 6 26 57 44 76 28
78 28 65 4z m-406 -88 c37 -16 63 -31 60 -35 -4 -3 -19 0 -35 8 -15 8 -39 15
-52 15 -23 0 -47 16 -47 32 0 11 1 11 74 -20z m286 -362 c13 -8 13 -10 -2 -10
-9 0 -20 5 -23 10 -8 13 5 13 25 0z"/>
<path d="M2394 1650 c0 -52 1 -74 3 -47 2 26 2 68 0 95 -2 26 -3 4 -3 -48z"/>
<path d="M1870 1635 c-10 -27 -2 -123 11 -131 5 -3 9 31 9 75 0 45 -2 81 -5
81 -3 0 -10 -11 -15 -25z"/>
<path d="M3790 1423 c0 -5 7 -30 16 -55 l15 -46 75 -17 c41 -9 89 -14 107 -11
28 5 29 5 7 -4 -14 -5 -51 -16 -83 -25 -58 -17 -58 -17 -52 -48 11 -51 18 -53
100 -29 83 24 105 27 105 12 0 -11 71 -13 105 -4 12 3 25 15 31 27 5 12 16 21
23 19 7 -1 10 2 7 7 -12 19 24 78 63 104 23 15 41 29 41 32 0 13 -20 2 -58
-31 -23 -19 -42 -32 -42 -27 0 4 -4 2 -9 -6 -5 -8 -15 -16 -23 -17 -7 -1 -19
-3 -27 -5 -29 -7 -21 29 15 77 33 44 34 46 8 24 -16 -14 -31 -29 -33 -34 -12
-28 -53 -56 -81 -56 -29 0 -31 2 -28 32 l3 32 -110 23 c-168 35 -175 36 -175
26z m387 -153 c7 -10 8 -22 2 -31 -5 -8 -9 -10 -9 -5 0 5 -7 3 -15 -4 -12 -10
-16 -9 -21 4 -3 9 -3 23 0 32 4 12 2 15 -9 10 -47 -18 -228 -66 -232 -62 -3 2
33 16 78 30 167 50 190 53 206 26z"/>
<path d="M2373 1300 c0 -36 2 -50 4 -32 2 17 2 47 0 65 -2 17 -4 3 -4 -33z"/>
<path d="M1967 861 c-7 -33 -8 -34 -23 -15 -14 17 -15 11 -9 -73 4 -50 10
-104 14 -118 11 -42 42 149 33 200 l-8 40 -7 -34z"/>
<path d="M2747 852 c-7 -43 4 -80 29 -95 12 -7 49 -105 42 -112 -2 -2 -89 -15
-193 -30 -105 -14 -194 -28 -200 -30 -11 -5 168 1 323 12 80 5 99 10 137 35
26 17 45 38 45 48 0 10 6 20 13 23 6 2 12 19 12 38 0 32 -3 35 -50 51 -27 10
-63 18 -81 18 -35 0 -47 11 -61 55 l-10 30 -6 -43z"/>
<path d="M2748 713 c6 -2 18 -2 25 0 6 3 1 5 -13 5 -14 0 -19 -2 -12 -5z"/>
<path d="M2233 593 c32 -2 81 -2 110 0 29 2 3 3 -58 3 -60 0 -84 -1 -52 -3z"/>
<path d="M1258 583 c34 -2 90 -2 125 0 34 2 6 3 -63 3 -69 0 -97 -1 -62 -3z"/>
<path d="M2063 583 c15 -2 37 -2 50 0 12 2 0 4 -28 4 -27 0 -38 -2 -22 -4z"/>
<path d="M3550 550 c0 -5 7 -10 16 -10 8 0 12 5 9 10 -3 6 -10 10 -16 10 -5 0
-9 -4 -9 -10z"/>
<path d="M3470 413 l-25 -13 31 0 c18 0 46 6 64 14 l33 13 -39 0 c-22 0 -50
-6 -64 -14z"/>
<path d="M3590 410 c-9 -6 -10 -10 -3 -10 6 0 15 5 18 10 8 12 4 12 -15 0z"/>
<path d="M3575 341 c-11 -3 -35 -14 -52 -24 -18 -9 -35 -17 -38 -17 -21 1 -24
-2 -19 -14 5 -12 14 -10 51 10 25 13 54 24 64 24 19 0 34 16 22 23 -5 2 -17 1
-28 -2z"/>
<path d="M3493 236 c5 -15 55 -16 61 0 4 11 -3 13 -29 11 -19 -1 -34 -6 -32
-11z"/>
</g>
</svg>
