<?xml version="1.0" standalone="no"?>
<!DOCTYPE svg PUBLIC "-//W3C//DTD SVG 20010904//EN"
 "http://www.w3.org/TR/2001/REC-SVG-20010904/DTD/svg10.dtd">
<svg version="1.0" xmlns="http://www.w3.org/2000/svg"
 width="920.000000pt" height="572.000000pt" viewBox="0 0 920.000000 572.000000"
 preserveAspectRatio="xMidYMid meet">

<g transform="translate(0.000000,572.000000) scale(0.100000,-0.100000)"
fill="#000000" stroke="none">
<path d="M4720 5304 c-196 -30 -344 -153 -457 -380 -50 -101 -58 -134 -33
-134 4 0 24 46 44 103 37 104 46 117 150 239 79 93 147 128 247 128 138 0 300
-68 313 -131 2 -8 8 -27 14 -42 7 -16 12 -31 12 -33 0 -3 9 -24 19 -47 17 -37
37 -190 34 -262 -4 -89 -29 -178 -44 -154 -4 8 -13 1 -24 -20 -9 -18 -25 -41
-36 -52 -10 -10 -19 -27 -19 -36 0 -61 -85 -176 -165 -225 -64 -39 -74 -41
-70 -11 3 28 -5 28 -80 0 -46 -18 -111 -15 -174 8 -24 8 -46 13 -48 11 -2 -2
16 -19 42 -37 32 -23 44 -37 39 -48 -10 -23 -7 -55 6 -59 5 -2 10 -8 10 -13 0
-5 16 -25 35 -45 32 -33 39 -36 73 -29 20 4 41 9 46 12 4 3 27 6 50 7 46 1 46
1 47 -82 0 -32 -7 -55 -28 -85 -34 -51 -64 -127 -56 -140 3 -6 1 -7 -5 -3 -6
3 -13 2 -17 -4 -3 -5 -2 -10 3 -10 22 0 -4 -48 -54 -102 -30 -31 -54 -60 -55
-65 -3 -36 -13 -53 -51 -85 -48 -42 -46 -46 12 -21 33 15 43 26 57 65 9 27 21
48 26 48 4 0 5 5 1 12 -4 7 -3 8 5 4 7 -5 30 6 57 27 28 22 68 41 111 51 36 9
80 24 97 33 17 9 52 22 77 28 l47 13 31 -112 c36 -130 63 -257 56 -264 -5 -6
-5 -6 -41 133 -28 109 -28 110 -37 70 -4 -22 -7 -79 -5 -128 3 -80 1 -87 -16
-87 -17 0 -18 6 -13 88 4 61 3 75 -3 47 -5 -22 -9 -61 -9 -87 -1 -29 -6 -48
-12 -48 -8 0 -10 26 -6 88 l5 87 -17 -84 c-9 -47 -23 -87 -29 -89 -9 -3 -11 4
-8 20 6 23 36 213 36 223 0 3 -11 -2 -25 -11 -14 -9 -25 -24 -25 -33 0 -9 -16
-33 -36 -52 -45 -43 -64 -78 -61 -115 l2 -29 -130 -9 c-97 -7 -130 -6 -133 3
-3 9 -7 9 -18 0 -16 -13 -157 -15 -266 -4 -32 4 -58 3 -58 -1 0 -3 19 -56 42
-117 l41 -111 -38 -33 c-20 -18 -62 -49 -91 -69 -54 -37 -55 -37 -87 -22 -30
14 -33 20 -30 54 l2 39 -8 -33 c-12 -45 -13 -45 -54 -26 -29 14 -34 20 -27 35
8 13 2 22 -24 43 l-34 25 15 58 c7 32 17 78 22 103 4 25 15 61 23 80 9 19 18
45 21 58 5 19 3 21 -9 11 -8 -7 -13 -18 -10 -25 3 -8 0 -13 -6 -11 -6 1 -111
-145 -232 -326 -324 -480 -370 -547 -485 -707 -58 -80 -127 -176 -154 -215
-27 -38 -56 -77 -63 -85 -8 -8 -51 -71 -95 -140 -45 -69 -84 -127 -85 -129 -2
-2 -16 9 -32 25 -35 36 -258 280 -289 317 -13 15 -28 27 -35 27 -6 0 -19 6
-27 14 -9 8 -43 30 -77 49 l-60 34 -40 -28 c-48 -35 -58 -35 -71 -6 -6 13 -34
54 -62 92 -28 37 -51 72 -51 76 0 5 -4 8 -9 6 -8 -2 -48 39 -233 238 -48 51
-50 32 -3 -22 19 -23 35 -45 35 -49 0 -5 21 -27 47 -51 78 -72 44 -66 -107 20
-35 20 20 -38 219 -228 76 -72 82 -81 70 -100 -7 -11 -62 -82 -122 -158 l-110
-139 29 -28 c16 -15 198 -153 404 -305 206 -153 384 -286 395 -295 21 -20 655
-320 674 -320 12 0 25 26 171 355 51 116 103 221 115 235 12 14 50 66 85 115
35 50 82 113 105 140 50 59 68 92 59 106 -3 6 10 37 30 69 20 32 36 63 36 69
0 5 6 14 13 18 24 16 48 51 53 78 3 16 10 37 16 49 30 55 78 195 78 225 0 19
3 31 7 27 8 -8 5 -654 -3 -668 -3 -4 -5 -69 -5 -144 0 -135 0 -136 -22 -131
-12 3 -83 10 -157 16 -74 7 -153 13 -174 15 l-39 5 6 -147 c10 -227 66 -670
115 -912 l18 -85 600 -3 601 -2 70 157 c41 94 75 157 84 158 9 2 53 14 100 28
46 14 527 150 1069 302 542 152 994 283 1005 290 49 31 480 420 483 434 1 9
-84 120 -190 246 -106 127 -292 350 -413 495 -121 146 -334 396 -474 555 -140
160 -267 305 -283 324 l-29 33 -61 -23 c-38 -14 -80 -22 -112 -21 -28 1 -179
5 -336 10 l-285 9 -105 108 c-58 59 -122 115 -142 126 -51 26 -52 58 -3 85 27
14 37 16 47 6 17 -17 33 -15 18 3 -7 8 -24 15 -37 15 -34 0 -83 -30 -83 -51 0
-14 -15 -18 -77 -23 -43 -4 -91 -13 -108 -21 -16 -8 -47 -17 -67 -20 -46 -7
-47 -16 -12 -122 45 -139 44 -133 28 -133 -8 0 -14 6 -14 14 0 8 -18 74 -40
147 -60 201 -55 231 50 262 36 10 81 28 101 38 20 10 42 19 48 19 7 0 45 15
84 34 40 19 80 37 90 40 25 8 23 117 -4 204 -51 165 -74 221 -129 302 -63 93
-139 223 -182 311 -20 40 -31 83 -39 155 -13 123 -53 225 -107 275 -102 96
-200 144 -272 133z m275 -898 c-9 -14 -13 -30 -9 -37 9 -15 43 28 44 56 0 17
2 17 10 5 18 -27 10 -52 -26 -85 -22 -20 -31 -35 -25 -40 16 -9 13 -25 -4 -25
-41 0 -43 104 -3 147 27 29 36 15 13 -21z m435 -297 c0 -6 -4 -7 -10 -4 -5 3
-10 11 -10 16 0 6 5 7 10 4 6 -3 10 -11 10 -16z m-500 -23 c0 -3 -4 -8 -10
-11 -5 -3 -10 -1 -10 4 0 6 5 11 10 11 6 0 10 -2 10 -4z m495 -84 c-6 -15 -8
-15 -15 3 -10 28 0 53 12 30 5 -9 7 -24 3 -33z m-230 -172 c7 -11 -9 -11 -45
0 -24 8 -24 8 7 9 17 1 35 -3 38 -9z m151 -197 c-7 -7 -26 7 -26 19 0 6 6 6
15 -2 9 -7 13 -15 11 -17z m-35 0 c13 -15 12 -15 -8 -4 -24 12 -29 21 -14 21
5 0 15 -7 22 -17z m217 -168 c34 -32 62 -63 62 -67 0 -12 -98 -10 -105 2 -3 6
-15 10 -26 10 -11 0 -17 -4 -14 -10 4 -6 -6 -10 -22 -10 -16 0 -34 -5 -39 -10
-6 -6 -41 -10 -80 -8 -61 3 -69 5 -67 22 1 11 -5 26 -13 34 -21 21 -12 37 23
39 23 1 34 -5 41 -20 8 -17 9 -9 5 33 l-6 55 22 -19 c18 -17 21 -17 15 -3 -5
13 -1 17 18 17 13 0 30 -6 37 -12 10 -11 11 -9 5 6 -6 16 -4 17 13 7 16 -8 81
-79 110 -120 2 -2 6 -1 10 3 4 3 -11 25 -34 49 -46 48 -93 110 -93 122 0 9 33
-20 138 -120z m-1505 -772 c-7 -17 -43 -27 -54 -16 -12 12 0 95 12 87 5 -3 9
3 10 13 0 10 8 -2 18 -27 10 -25 16 -50 14 -57z m-96 -162 c6 -9 17 -16 25
-16 7 0 14 -9 16 -19 5 -24 -103 -126 -133 -126 -12 0 -26 -5 -33 -12 -12 -12
-52 -19 -52 -10 0 27 39 113 53 118 9 3 17 14 17 25 0 10 4 19 8 19 5 0 15 11
22 25 11 20 18 23 39 18 14 -3 31 -13 38 -22z m-167 -211 c0 -5 -4 -10 -10
-10 -5 0 -10 5 -10 10 0 6 5 10 10 10 6 0 10 -4 10 -10z m-18 -42 c-7 -7 -12
-8 -12 -2 0 14 12 26 19 19 2 -3 -1 -11 -7 -17z m564 -340 c8 -27 -21 -12 -35
18 -6 14 -11 42 -11 62 l1 37 20 -50 c10 -27 22 -58 25 -67z m49 -128 c20 -52
57 -149 81 -215 25 -66 51 -133 59 -150 15 -33 85 -207 85 -212 0 -2 -65 -3
-145 -3 -109 0 -145 3 -146 13 -1 6 -1 49 1 94 2 75 0 82 -19 88 -12 3 -19 10
-17 13 2 4 9 41 15 82 6 41 14 93 17 114 5 28 4 37 -4 32 -17 -10 -15 0 3 17
10 10 16 49 21 121 4 59 8 105 10 104 1 -2 19 -46 39 -98z m-595 30 c0 -5 -4
-10 -10 -10 -5 0 -10 5 -10 10 0 6 5 10 10 10 6 0 10 -4 10 -10z m1288 -215
c-3 -3 -9 2 -12 12 -6 14 -5 15 5 6 7 -7 10 -15 7 -18z m-842 -86 c8 -1 19 -2
26 -3 14 -1 19 -29 8 -46 -10 -17 -33 -2 -26 17 3 8 2 12 -3 9 -15 -10 -44 32
-35 51 7 16 8 16 11 -4 3 -13 11 -24 19 -24z m-37 -105 c1 5 9 2 18 -5 11 -10
14 -10 9 -1 -4 6 -2 12 3 12 16 0 13 -22 -4 -47 -19 -27 -59 -21 -50 8 4 11 2
19 -5 19 -7 0 -7 7 1 22 12 22 12 22 20 3 4 -11 8 -16 8 -11z m-82 -46 c-3 -7
-5 -2 -5 12 0 14 2 19 5 13 2 -7 2 -19 0 -25z m63 -101 c0 -5 -4 -5 -10 -2 -5
3 -10 14 -10 23 0 15 2 15 10 2 5 -8 10 -19 10 -23z m-1450 13 c0 -5 -5 -10
-11 -10 -5 0 -7 5 -4 10 3 6 8 10 11 10 2 0 4 -4 4 -10z m2580 -144 c0 -12 -5
-7 -19 24 -11 24 -11 24 3 6 9 -11 16 -24 16 -30z"/>
<path d="M4477 5080 c-21 -4 -46 -15 -55 -25 -16 -18 -16 -18 0 -6 12 9 44 11
109 8 81 -4 91 -3 74 9 -10 8 -29 14 -41 14 -12 0 -28 2 -36 4 -7 2 -30 0 -51
-4z"/>
<path d="M4855 4970 c-11 -18 17 -36 67 -44 51 -8 108 -61 109 -102 1 -16 5
-40 9 -54 6 -20 8 -15 9 26 1 58 -21 99 -80 146 -40 32 -102 47 -114 28z"/>
<path d="M4424 4938 c-7 -10 12 -17 56 -20 19 -2 37 -6 40 -9 3 -4 16 -10 29
-14 18 -5 22 -4 16 6 -6 11 -5 12 6 2 7 -7 20 -13 28 -13 11 0 9 7 -9 24 -20
20 -38 25 -93 28 -38 2 -71 0 -73 -4z"/>
<path d="M4760 4859 c0 -5 5 -7 10 -4 6 3 10 8 10 11 0 2 -4 4 -10 4 -5 0 -10
-5 -10 -11z"/>
<path d="M4805 4829 c-20 -9 -20 -9 0 -6 12 1 31 -8 45 -21 28 -26 95 -62 115
-62 48 0 -27 71 -96 90 -39 11 -38 11 -64 -1z"/>
<path d="M4560 4750 c0 -5 14 -10 30 -10 17 0 30 5 30 10 0 6 -13 10 -30 10
-16 0 -30 -4 -30 -10z"/>
<path d="M4677 4722 c-35 -22 -34 -32 3 -32 17 0 30 -4 30 -9 0 -13 43 -22 54
-11 9 9 4 15 -39 52 -19 16 -22 16 -48 0z"/>
<path d="M4475 4649 c-52 -16 -75 -42 -66 -75 7 -28 66 -78 81 -69 9 5 93 -18
144 -40 21 -9 45 -14 53 -11 25 10 -58 83 -108 96 -24 6 -50 13 -58 16 -7 2
-19 -2 -25 -10 -14 -17 -76 -10 -76 9 0 14 55 65 70 65 4 0 10 7 14 15 3 8 4
15 3 14 -1 0 -15 -5 -32 -10z"/>
<path d="M4643 4623 c9 -2 17 -9 17 -14 0 -5 7 -9 15 -9 22 0 35 -33 35 -89 0
-53 8 -62 34 -36 8 8 19 15 25 15 22 0 10 40 -21 76 -31 36 -83 65 -110 63 -7
-1 -5 -3 5 -6z"/>
<path d="M4191 4374 c0 -11 3 -14 6 -6 3 7 2 16 -1 19 -3 4 -6 -2 -5 -13z"/>
<path d="M3420 4286 c0 -2 8 -10 18 -17 15 -13 16 -12 3 4 -13 16 -21 21 -21
13z"/>
<path d="M4068 4199 c-37 -21 -97 -159 -69 -159 6 0 11 12 11 27 0 14 12 42
26 61 33 43 83 65 130 56 27 -5 34 -3 34 10 0 13 -11 16 -57 16 -32 0 -66 -5
-75 -11z"/>
<path d="M3738 4033 c-32 -8 -19 -22 16 -16 32 5 34 3 29 -16 -4 -16 -1 -21
16 -21 11 0 21 -6 21 -14 0 -25 -12 -46 -26 -46 -7 0 -11 -6 -8 -13 5 -13 -70
-107 -85 -107 -4 0 -5 20 -1 45 7 46 33 85 57 85 7 0 13 7 13 16 0 11 -9 14
-37 12 -45 -4 -69 -38 -80 -118 -8 -53 -9 -55 -45 -61 -20 -3 -43 -11 -51 -17
-11 -9 -33 -7 -98 9 -46 12 -86 23 -89 26 -9 9 42 43 64 43 15 0 17 3 8 9 -10
6 -1 16 33 35 38 23 44 30 34 42 -6 8 -15 14 -19 14 -5 0 -45 -27 -90 -61
l-82 -60 -102 17 c-115 20 -153 21 -284 10 -78 -8 -90 -11 -80 -23 10 -13 6
-14 -28 -7 -44 8 -37 8 -157 6 -49 -1 -86 -5 -84 -9 3 -5 -7 -8 -21 -9 -99 -2
-215 -29 -422 -100 -173 -58 -243 -78 -304 -83 -57 -4 -82 -11 -89 -22 -7 -12
-1 -76 21 -225 17 -115 34 -236 38 -268 4 -43 12 -64 27 -78 28 -25 165 -69
319 -102 68 -15 156 -34 196 -43 48 -11 78 -23 85 -35 7 -10 19 -18 27 -19 10
0 8 -3 -5 -9 -14 -6 -15 -9 -5 -10 10 0 5 -9 -15 -26 -16 -15 -25 -23 -18 -20
16 9 128 -35 228 -89 46 -25 87 -45 92 -44 34 6 34 -5 -2 -37 l-40 -35 45 25
c31 18 46 22 51 14 4 -7 0 -18 -9 -26 -16 -12 -15 -13 3 -7 23 8 24 8 48 6 10
0 16 -5 12 -10 -6 -11 -276 -265 -355 -335 -62 -55 -68 -54 105 -9 l110 29 95
121 c88 113 170 190 184 176 3 -4 6 -1 6 6 0 8 7 11 15 7 8 -3 15 0 15 7 0 7
14 18 32 26 18 8 59 41 91 73 33 32 61 58 64 58 13 0 90 77 178 180 39 45 135
148 215 229 186 187 299 307 280 296 -8 -5 -44 -33 -80 -64 l-65 -55 79 81
c47 49 74 83 67 87 -18 12 -13 19 45 61 l56 40 -29 23 c-43 36 -87 52 -144 52
-29 0 -50 2 -47 5 3 3 43 16 89 28 45 13 84 28 87 35 7 21 -60 52 -112 52
l-49 0 60 63 c74 77 83 100 52 133 -12 13 -27 24 -32 24 -5 0 -16 9 -25 19
-18 20 -65 32 -94 24z m136 -76 c29 -21 13 -48 -75 -122 -85 -72 -116 -85 -48
-20 22 21 48 49 56 62 9 13 22 22 29 19 16 -6 18 6 4 20 -10 10 -3 54 9 54 4
0 15 -6 25 -13z m-831 -144 c-7 -2 -19 -2 -25 0 -7 3 -2 5 12 5 14 0 19 -2 13
-5z m-136 -9 c-3 -3 -12 -4 -19 -1 -8 3 -5 6 6 6 11 1 17 -2 13 -5z m107 -23
c44 -11 95 -22 111 -24 17 -2 -2 -5 -42 -6 -51 -1 -84 4 -117 19 -25 10 -46
22 -46 25 0 8 5 7 94 -14z m343 -25 c9 -9 -126 -5 -162 4 -19 5 5 7 63 5 51
-1 96 -6 99 -9z m-547 -360 c0 -3 -4 -8 -10 -11 -5 -3 -10 -1 -10 4 0 6 5 11
10 11 6 0 10 -2 10 -4z m820 -180 c0 -2 -8 -10 -17 -17 -16 -13 -17 -12 -4 4
13 16 21 21 21 13z m-536 -453 c-27 -32 -51 -60 -55 -63 -3 -3 -22 -31 -42
-62 -20 -32 -40 -58 -43 -58 -4 0 1 10 10 23 9 12 24 38 32 57 13 29 130 160
143 160 2 0 -18 -26 -45 -57z m-214 -163 c0 -13 -11 -13 -30 0 -12 8 -11 10 8
10 12 0 22 -4 22 -10z"/>
<path d="M5584 3920 c-22 -9 -134 -78 -134 -84 0 -3 150 73 159 80 10 9 -6 11
-25 4z"/>
<path d="M3470 3860 c-8 -5 -10 -10 -5 -10 6 0 17 5 25 10 8 5 11 10 5 10 -5
0 -17 -5 -25 -10z"/>
<path d="M3580 3850 c-13 -8 -12 -10 3 -10 9 0 17 5 17 10 0 12 -1 12 -20 0z"/>
<path d="M5625 3810 c-16 -7 -14 -9 15 -9 19 0 42 4 50 9 11 7 8 10 -15 9 -16
0 -39 -4 -50 -9z"/>
<path d="M5528 3753 c7 -3 16 -2 19 1 4 3 -2 6 -13 5 -11 0 -14 -3 -6 -6z"/>
<path d="M5506 3691 c-3 -4 4 -17 17 -27 22 -19 22 -19 4 2 -9 11 -14 24 -10
27 3 4 4 7 0 7 -3 0 -8 -4 -11 -9z"/>
<path d="M4080 3484 c-13 -32 -13 -51 -1 -38 10 11 24 64 16 64 -3 0 -10 -12
-15 -26z"/>
<path d="M3952 3405 c0 -16 2 -22 5 -12 2 9 2 23 0 30 -3 6 -5 -1 -5 -18z"/>
<path d="M1450 3207 c0 -2 15 -16 33 -33 l32 -29 -29 33 c-28 30 -36 37 -36
29z"/>
<path d="M4011 3174 c0 -11 3 -14 6 -6 3 7 2 16 -1 19 -3 4 -6 -2 -5 -13z"/>
<path d="M4002 3120 c0 -14 2 -19 5 -12 2 6 2 18 0 25 -3 6 -5 1 -5 -13z"/>
<path d="M1700 2926 c0 -2 8 -10 18 -17 15 -13 16 -12 3 4 -13 16 -21 21 -21
13z"/>
<path d="M1617 2844 c34 -38 81 -87 105 -109 l43 -40 -35 39 c-19 21 -46 50
-60 65 -14 14 -39 42 -56 62 -17 19 -37 39 -45 44 -8 5 14 -22 48 -61z"/>
<path d="M1941 2594 c0 -11 3 -14 6 -6 3 7 2 16 -1 19 -3 4 -6 -2 -5 -13z"/>
<path d="M2030 2474 c0 -6 7 -19 16 -30 14 -18 14 -18 3 6 -14 31 -19 36 -19
24z"/>
<path d="M2401 2360 c-63 -47 -78 -61 -35 -34 38 23 101 74 93 74 -3 0 -29
-18 -58 -40z"/>
</g>
</svg>
